<svg width="32" height="32" viewBox="0 0 104 103" fill="none" xmlns="http://www.w3.org/2000/svg">
  <path d="M52 91.4697C55.1141 91.4698 57.6387 93.9943 57.6387 97.1084C57.6386 100.222 55.114 102.747 52 102.747C48.8859 102.747 46.3614 100.222 46.3613 97.1084C46.3613 93.9943 48.8859 91.4697 52 91.4697ZM70.1689 62.6504C74.3209 62.6505 77.6865 66.0169 77.6865 70.1689C77.6864 73.5573 75.4444 76.4202 72.3633 77.3594L71.7822 81.4229C73.8285 82.7662 75.1807 85.0802 75.1807 87.7109C75.1806 91.8628 71.8149 95.2283 67.6631 95.2285C63.511 95.2285 60.1446 91.863 60.1445 87.7109C60.1445 86.9226 60.2652 86.1622 60.4902 85.4482L57.0039 82.543C55.7708 83.4281 54.2606 83.952 52.627 83.9521C51.4874 83.9521 50.4072 83.6969 49.4395 83.2432L45.0459 86.7578C45.0854 87.07 45.1084 87.388 45.1084 87.7109C45.1083 91.863 41.7419 95.2285 37.5898 95.2285C33.438 95.2283 30.0724 91.8628 30.0723 87.7109C30.0723 83.559 33.4379 80.1926 37.5898 80.1924C39.5366 80.1924 41.3113 80.9325 42.6465 82.1465L45.8135 79.6133C45.3619 78.6474 45.1084 77.5702 45.1084 76.4336C45.1085 72.2815 48.4749 68.916 52.627 68.916C56.7788 68.9163 60.1444 72.2817 60.1445 76.4336C60.1445 77.0858 60.0614 77.7188 59.9053 78.3223L63.5889 81.3926C64.5344 80.7817 65.6253 80.3774 66.7988 80.2432L67.248 77.0977C64.5469 75.9577 62.6505 73.285 62.6504 70.1689C62.6504 66.0168 66.0168 62.6504 70.1689 62.6504ZM19.4219 78.9395C22.5358 78.9396 25.0605 81.4642 25.0605 84.5781C25.0605 87.6921 22.5359 90.2167 19.4219 90.2168C16.3078 90.2168 13.7832 87.6922 13.7832 84.5781C13.7833 81.4641 16.3078 78.9395 19.4219 78.9395ZM85.8311 78.9395C88.9451 78.9395 91.4697 81.4641 91.4697 84.5781C91.4697 87.6922 88.9451 90.2168 85.8311 90.2168C82.7171 90.2167 80.1924 87.6921 80.1924 84.5781C80.1924 81.4642 82.7171 78.9396 85.8311 78.9395ZM16.2891 28.8193C20.4411 28.8193 23.8074 32.185 23.8076 36.3369C23.8076 37.6127 23.4875 38.8137 22.9268 39.8662L25.9082 44.04C26.4417 43.9199 26.9966 43.8555 27.5664 43.8555C31.7183 43.8556 35.0837 47.2212 35.084 51.373C35.084 55.5251 31.7184 58.8915 27.5664 58.8916C26.862 58.8916 26.1807 58.7925 25.5342 58.6113L22.583 62.2998C22.9594 62.875 23.2613 63.5037 23.4697 64.1738L27.6113 64.6914C28.9641 62.7034 31.2451 61.3975 33.8311 61.3975C37.9832 61.3975 41.3496 64.7639 41.3496 68.916C41.3494 73.068 37.9831 76.4336 33.8311 76.4336C29.9349 76.4335 26.7307 73.4699 26.3506 69.6738L23.2363 69.2842C22.1073 72.0097 19.4228 73.9277 16.2891 73.9277C12.137 73.9277 8.77148 70.5613 8.77148 66.4092C8.7717 62.2573 12.1371 58.8917 16.2891 58.8916C17.0628 58.8916 17.8093 59.0085 18.5117 59.2256L21.3789 55.6426C20.5405 54.4298 20.0479 52.959 20.0479 51.373C20.048 49.6483 20.6296 48.0595 21.6064 46.791L19.1152 43.3037C18.2425 43.6581 17.289 43.8555 16.2891 43.8555C12.137 43.8554 8.77148 40.489 8.77148 36.3369C8.77167 32.185 12.1371 28.8194 16.2891 28.8193ZM70.1689 26.3135C73.4877 26.3136 76.3021 28.4646 77.2988 31.4482L82.6758 32.2168C84.0192 30.1708 86.3333 28.8193 88.9639 28.8193C93.1158 28.8194 96.4813 32.185 96.4814 36.3369C96.4814 40.489 93.1159 43.8554 88.9639 43.8555C88.3939 43.8555 87.8393 43.7891 87.3057 43.6689L84.3252 47.8428C84.8862 48.8954 85.205 50.097 85.2051 51.373C85.2051 52.5682 84.924 53.6978 84.4277 54.7012L87.9756 58.958C88.2991 58.9155 88.6288 58.8916 88.9639 58.8916C93.1158 58.8916 96.4812 62.2573 96.4814 66.4092C96.4814 70.5613 93.1159 73.9277 88.9639 73.9277C84.8118 73.9277 81.4453 70.5613 81.4453 66.4092C81.4454 64.4813 82.172 62.7232 83.3652 61.3926L80.7402 58.2422C79.8068 58.6578 78.7742 58.8916 77.6865 58.8916C73.5345 58.8915 70.1689 55.5251 70.1689 51.373C70.1692 47.2212 73.5347 43.8556 77.6865 43.8555C78.6863 43.8555 79.6401 44.052 80.5127 44.4062L83.0039 40.918C82.1928 39.8642 81.655 38.5902 81.4961 37.2002L77.165 36.5811C76.0671 39.3724 73.35 41.3495 70.1689 41.3496C66.0168 41.3496 62.6504 37.9832 62.6504 33.8311C62.6505 29.6791 66.0169 26.3135 70.1689 26.3135ZM5.63867 46.3613C8.7527 46.3614 11.2773 48.886 11.2773 52C11.2773 55.114 8.75268 57.6386 5.63867 57.6387C2.52461 57.6387 3.19558e-05 55.1141 0 52C0 48.8859 2.52459 46.3613 5.63867 46.3613ZM98.3613 45.1084C101.475 45.1084 104 47.633 104 50.7471C104 53.8611 101.475 56.3857 98.3613 56.3857C95.2473 56.3857 92.7227 53.8611 92.7227 50.7471C92.7227 47.633 95.2473 45.1084 98.3613 45.1084ZM67.6631 7.51758C71.815 7.51782 75.1807 10.8842 75.1807 15.0361C75.1806 19.1881 71.815 22.5535 67.6631 22.5537C66.1458 22.5537 64.7342 22.1031 63.5527 21.3301L59.8643 24.2812C60.0454 24.9278 60.1445 25.6091 60.1445 26.3135C60.1444 30.4653 56.7788 33.8308 52.627 33.8311C48.4749 33.8311 45.1085 30.4655 45.1084 26.3135C45.1084 25.2256 45.3411 24.1923 45.7568 23.2588L42.6064 20.6338C41.7721 21.3819 40.7701 21.9448 39.6631 22.2617L39.1631 26.2637C41.2322 27.6029 42.6025 29.9299 42.6025 32.5781C42.6025 36.7302 39.2361 40.0967 35.084 40.0967C30.932 40.0965 27.5664 36.7301 27.5664 32.5781C27.5665 28.737 30.4472 25.5702 34.166 25.1172L34.5664 21.918C31.9207 20.7538 30.0723 18.1121 30.0723 15.0361C30.0723 10.8842 33.4379 7.51783 37.5898 7.51758C41.742 7.51758 45.1084 10.884 45.1084 15.0361C45.1084 15.3709 45.0834 15.7002 45.041 16.0234L49.2979 19.5713C50.3013 19.0749 51.4316 18.7949 52.627 18.7949C54.2127 18.795 55.6828 19.2877 56.8955 20.126L60.4785 17.2588C60.2614 16.5563 60.1445 15.8099 60.1445 15.0361C60.1445 10.884 63.511 7.51758 67.6631 7.51758ZM19.4219 12.5303C22.5359 12.5304 25.0605 15.0549 25.0605 18.1689C25.0604 21.2828 22.5358 23.8075 19.4219 23.8076C16.3079 23.8076 13.7833 21.2829 13.7832 18.1689C13.7832 15.0549 16.3078 12.5303 19.4219 12.5303ZM84.5781 12.5303C87.6922 12.5303 90.2168 15.0549 90.2168 18.1689C90.2167 21.2829 87.6921 23.8076 84.5781 23.8076C81.4642 23.8075 78.9396 21.2828 78.9395 18.1689C78.9395 15.0549 81.4641 12.5304 84.5781 12.5303ZM52 0C55.1141 2.98932e-05 57.6387 2.5246 57.6387 5.63867C57.6386 8.75268 55.114 11.2773 52 11.2773C48.886 11.2773 46.3614 8.7527 46.3613 5.63867C46.3613 2.52459 48.8859 0 52 0Z" fill="url(#paint0_radial_2231_25192)" />
  <defs>
    <radialGradient id="paint0_radial_2231_25192" cx="0" cy="0" r="1" gradientUnits="userSpaceOnUse" gradientTransform="translate(52 51.3735) rotate(90) scale(51.6265 52.2562)">
      <stop stop-color="#00d4ff"/>
      <stop offset="1" stop-color="#007bff"/>
    </radialGradient>
  </defs>
</svg>