<svg width="300" height="32" viewBox="0 0 300 32" fill="none" xmlns="http://www.w3.org/2000/svg">
<path d="M285.936 27.5756H280.614L279.351 32.0007H277.704L282.345 16.0352H284.289L288.972 32.0007H287.247L285.936 27.5756ZM281.124 25.9338H285.477L283.434 18.4288H283.197L281.124 25.9338Z" fill="#010101"/>
<path d="M290.478 16.0352H300V17.7217H296.052V30.3106H300V31.9972H290.478V30.3106H294.405V17.7217H290.478V16.0352Z" fill="#010101"/>
<path d="M0 32V0H24.654C29.625 0 33.6 4.61824 33.6 10.285C33.6 16 29.625 20.7079 24.654 20.7079H4.254V32H0ZM4.254 16H24.654C27.357 16 29.544 13.4408 29.544 10.3298C29.544 7.26708 27.357 4.70791 24.654 4.70791H4.254V16Z" fill="#010101"/>
<path d="M26.043 32L53.679 0H62.07V32H57.816V22.4014H39.882L31.53 32H26.043ZM43.899 17.828H57.816V4.70791H55.35L43.899 17.828Z" fill="#010101"/>
<path d="M99.327 0H103.581V32H95.43L75.072 4.70791H73.284V32H69.03V0H77.379L97.539 27.4749H99.327V0Z" fill="#010101"/>
<path d="M116.901 32C112.29 32 109.545 28.8924 109.545 23.5878V8.41216C109.545 3.10757 112.29 0 116.901 0H136.941C141.555 0 144.3 3.10757 144.3 8.41216V23.5878C144.3 28.8924 141.555 32 136.944 32H116.901ZM113.799 27.3369H140.043V4.66307H113.799V27.3369Z" fill="#010101"/>
<path d="M150.264 32V0H174.918C179.889 0 183.864 4.61824 183.864 10.285C183.864 16 179.889 20.7079 174.918 20.7079H154.518V32H150.264ZM154.518 16H174.918C177.621 16 179.808 13.4408 179.808 10.3298C179.808 7.26708 177.621 4.70791 174.918 4.70791H154.518V16Z" fill="#010101"/>
<path d="M222.312 4.75275H207.123V32H202.869V4.75275H187.638V0H222.312V4.75275Z" fill="#010101"/>
<path d="M227.88 0H232.134V32H227.88V0Z" fill="#010101"/>
<path d="M273.447 11.2921H269.154V4.70791H242.949V27.2921H269.193V20.7079H273.447V23.5878C273.447 28.8924 270.702 32 266.091 32H246.051C241.437 32 238.695 28.8924 238.695 23.5878V8.41216C238.695 3.10757 241.437 0 246.051 0H266.091C270.705 0 273.447 3.10757 273.447 8.41216V11.2921Z" fill="#010101"/>
</svg>
