<svg width="328" height="327" viewBox="0 0 328 327" fill="none" xmlns="http://www.w3.org/2000/svg">
<path d="M278.3 189.28C277.2 189.29 276.11 189.39 275.06 189.56L264.17 175.43C267.72 168.75 267.61 160.66 263.88 154.08L275.72 137.81C282.41 138.68 289.41 136.52 294.48 131.32C303.04 122.54 302.87 108.49 294.09 99.92C285.31 91.36 271.26 91.53 262.69 100.31C261.66 101.37 260.76 102.51 259.98 103.7L243.24 101.36C240.5 92.06 231.85 85.31 221.67 85.44C209.41 85.59 199.59 95.66 199.75 107.92C199.91 120.18 209.97 130 222.23 129.84C230.02 129.74 236.82 125.64 240.71 119.52L257.24 121.83C257.86 124.03 258.8 126.14 260.11 128.1L249.06 143.28C241.9 141.81 234.17 143.89 228.69 149.51C220.13 158.29 220.3 172.34 229.08 180.91C234.71 186.41 242.52 188.28 249.65 186.61L259.76 199.72C257.58 203.21 256.34 207.33 256.39 211.75C256.54 224.01 266.61 233.83 278.87 233.67C291.13 233.52 300.95 223.45 300.79 211.19C300.62 198.94 290.56 189.13 278.3 189.28Z" fill="url(#paint0_radial_101_12)"/>
<path d="M108.28 127.91C120.54 127.76 130.36 117.69 130.2 105.43C130.1 97.64 126 90.84 119.88 86.95L122.36 69.18C124.11 68.59 125.79 67.79 127.37 66.75L143.63 78.59C142.16 85.75 144.24 93.48 149.86 98.96C158.64 107.52 172.69 107.35 181.26 98.57C186.76 92.94 188.63 85.13 186.96 78L200.35 67.68C203.57 69.43 207.27 70.41 211.2 70.36C223.46 70.21 233.28 60.14 233.12 47.88C232.97 35.62 222.9 25.8 210.64 25.96C198.38 26.11 188.56 36.18 188.72 48.44C188.74 50.03 188.93 51.58 189.27 53.07L175.77 63.47C169.09 59.92 161 60.03 154.42 63.76L137.22 51.24C138.16 44.48 136.02 37.39 130.76 32.26C121.98 23.7 107.93 23.87 99.36 32.65C90.8 41.43 90.97 55.48 99.75 64.05C101.08 65.35 102.55 66.43 104.09 67.32L101.7 84.4C92.4 87.14 85.66 95.79 85.78 105.97C85.95 118.25 96.02 128.07 108.28 127.91Z" fill="url(#paint1_radial_101_12)"/>
<path d="M106.34 241.85C118.6 241.7 128.42 231.63 128.26 219.37C128.11 207.11 118.04 197.29 105.78 197.45C97.99 197.55 91.19 201.65 87.3 207.77L68.9 205.2C68.43 203.59 67.76 202.03 66.92 200.54L78.95 184.01C86.11 185.48 93.84 183.4 99.32 177.78C107.88 169 107.71 154.95 98.93 146.38C93.3 140.88 85.49 139.01 78.36 140.68L67.23 126.23C68.93 123.04 69.87 119.4 69.82 115.53C69.67 103.27 59.6 93.45 47.34 93.61C35.08 93.76 25.26 103.83 25.42 116.09C25.58 128.35 35.64 138.17 47.9 138.01C49.55 137.99 51.16 137.78 52.71 137.42L63.84 151.86C60.29 158.54 60.4 166.63 64.13 173.21L52.1 189.74C44.94 188.27 37.21 190.35 31.73 195.97C23.17 204.75 23.34 218.8 32.12 227.37C40.9 235.93 54.95 235.76 63.52 226.98C64.62 225.85 65.57 224.63 66.38 223.35L84.77 225.92C87.51 235.23 96.17 241.97 106.34 241.85Z" fill="url(#paint2_radial_101_12)"/>
<path d="M219.72 199.38C207.46 199.53 197.64 209.6 197.8 221.86C197.9 229.65 202 236.45 208.12 240.34L205.71 257.57C203.66 258.06 201.67 258.85 199.8 259.94L184.36 248.7C185.83 241.54 183.75 233.81 178.13 228.33C169.35 219.77 155.3 219.94 146.73 228.72C141.23 234.35 139.36 242.16 141.03 249.29L126.87 260.21C123.42 258.09 119.34 256.88 114.99 256.93C102.73 257.08 92.91 267.15 93.07 279.41C93.23 291.67 103.29 301.49 115.55 301.33C127.81 301.18 137.63 291.11 137.47 278.85C137.46 277.68 137.35 276.54 137.16 275.42L152.22 263.81C158.9 267.36 166.99 267.25 173.57 263.52L189.15 274.86C187.77 281.96 189.86 289.59 195.43 295.02C204.21 303.58 218.26 303.41 226.83 294.63C235.39 285.85 235.22 271.8 226.44 263.23C225.59 262.4 224.69 261.69 223.75 261.02L226.29 242.87C235.59 240.13 242.33 231.48 242.21 221.3C242.05 209.05 231.98 199.23 219.72 199.38Z" fill="url(#paint3_radial_101_12)"/>
<path d="M163.62 32.9C172.589 32.9 179.86 25.6291 179.86 16.66C179.86 7.69088 172.589 0.419983 163.62 0.419983C154.651 0.419983 147.38 7.69088 147.38 16.66C147.38 25.6291 154.651 32.9 163.62 32.9Z" fill="url(#paint4_radial_101_12)"/>
<path d="M164.38 326.88C173.349 326.88 180.62 319.609 180.62 310.64C180.62 301.671 173.349 294.4 164.38 294.4C155.411 294.4 148.14 301.671 148.14 310.64C148.14 319.609 155.411 326.88 164.38 326.88Z" fill="url(#paint5_radial_101_12)"/>
<path d="M310.99 179.5C319.959 179.5 327.23 172.229 327.23 163.26C327.23 154.291 319.959 147.02 310.99 147.02C302.021 147.02 294.75 154.291 294.75 163.26C294.75 172.229 302.021 179.5 310.99 179.5Z" fill="url(#paint6_radial_101_12)"/>
<path d="M17.01 180.27C25.9791 180.27 33.25 172.999 33.25 164.03C33.25 155.061 25.9791 147.79 17.01 147.79C8.04092 147.79 0.77002 155.061 0.77002 164.03C0.77002 172.999 8.04092 180.27 17.01 180.27Z" fill="url(#paint7_radial_101_12)"/>
<path d="M267.67 75.6799C276.639 75.6799 283.91 68.4091 283.91 59.44C283.91 50.4709 276.639 43.2 267.67 43.2C258.701 43.2 251.43 50.4709 251.43 59.44C251.43 68.4091 258.701 75.6799 267.67 75.6799Z" fill="url(#paint8_radial_101_12)"/>
<path d="M60.33 284.1C69.2991 284.1 76.57 276.829 76.57 267.86C76.57 258.891 69.2991 251.62 60.33 251.62C51.3609 251.62 44.09 258.891 44.09 267.86C44.09 276.829 51.3609 284.1 60.33 284.1Z" fill="url(#paint9_radial_101_12)"/>
<path d="M268.21 283.56C277.179 283.56 284.45 276.289 284.45 267.32C284.45 258.351 277.179 251.08 268.21 251.08C259.241 251.08 251.97 258.351 251.97 267.32C251.97 276.289 259.241 283.56 268.21 283.56Z" fill="url(#paint10_radial_101_12)"/>
<path d="M59.79 76.22C68.7591 76.22 76.03 68.9491 76.03 59.98C76.03 51.0109 68.7591 43.74 59.79 43.74C50.8209 43.74 43.55 51.0109 43.55 59.98C43.55 68.9491 50.8209 76.22 59.79 76.22Z" fill="url(#paint11_radial_101_12)"/>
<defs>
<radialGradient id="paint0_radial_101_12" cx="0" cy="0" r="1" gradientUnits="userSpaceOnUse" gradientTransform="translate(163.415 162.094) scale(157.212)">
<stop offset="0.2159" stop-color="#7ECBB6"/>
<stop offset="0.9945" stop-color="#008197"/>
</radialGradient>
<radialGradient id="paint1_radial_101_12" cx="0" cy="0" r="1" gradientUnits="userSpaceOnUse" gradientTransform="translate(163.415 162.094) scale(157.212 157.212)">
<stop offset="0.2159" stop-color="#7ECBB6"/>
<stop offset="0.9945" stop-color="#008197"/>
</radialGradient>
<radialGradient id="paint2_radial_101_12" cx="0" cy="0" r="1" gradientUnits="userSpaceOnUse" gradientTransform="translate(163.415 162.094) scale(157.212 157.212)">
<stop offset="0.2159" stop-color="#7ECBB6"/>
<stop offset="0.9945" stop-color="#008197"/>
</radialGradient>
<radialGradient id="paint3_radial_101_12" cx="0" cy="0" r="1" gradientUnits="userSpaceOnUse" gradientTransform="translate(163.415 162.094) scale(157.212 157.212)">
<stop offset="0.2159" stop-color="#7ECBB6"/>
<stop offset="0.9945" stop-color="#008197"/>
</radialGradient>
<radialGradient id="paint4_radial_101_12" cx="0" cy="0" r="1" gradientUnits="userSpaceOnUse" gradientTransform="translate(163.415 162.094) scale(157.212 157.212)">
<stop offset="0.2159" stop-color="#7ECBB6"/>
<stop offset="0.9945" stop-color="#008197"/>
</radialGradient>
<radialGradient id="paint5_radial_101_12" cx="0" cy="0" r="1" gradientUnits="userSpaceOnUse" gradientTransform="translate(163.415 162.094) scale(157.212 157.212)">
<stop offset="0.2159" stop-color="#7ECBB6"/>
<stop offset="0.9945" stop-color="#008197"/>
</radialGradient>
<radialGradient id="paint6_radial_101_12" cx="0" cy="0" r="1" gradientUnits="userSpaceOnUse" gradientTransform="translate(163.415 162.094) scale(157.212 157.212)">
<stop offset="0.2159" stop-color="#7ECBB6"/>
<stop offset="0.9945" stop-color="#008197"/>
</radialGradient>
<radialGradient id="paint7_radial_101_12" cx="0" cy="0" r="1" gradientUnits="userSpaceOnUse" gradientTransform="translate(163.415 162.094) scale(157.212 157.212)">
<stop offset="0.2159" stop-color="#7ECBB6"/>
<stop offset="0.9945" stop-color="#008197"/>
</radialGradient>
<radialGradient id="paint8_radial_101_12" cx="0" cy="0" r="1" gradientUnits="userSpaceOnUse" gradientTransform="translate(163.415 162.094) scale(157.212 157.212)">
<stop offset="0.2159" stop-color="#7ECBB6"/>
<stop offset="0.9945" stop-color="#008197"/>
</radialGradient>
<radialGradient id="paint9_radial_101_12" cx="0" cy="0" r="1" gradientUnits="userSpaceOnUse" gradientTransform="translate(163.415 162.094) scale(157.212)">
<stop offset="0.2159" stop-color="#7ECBB6"/>
<stop offset="0.9945" stop-color="#008197"/>
</radialGradient>
<radialGradient id="paint10_radial_101_12" cx="0" cy="0" r="1" gradientUnits="userSpaceOnUse" gradientTransform="translate(163.415 162.094) scale(157.212)">
<stop offset="0.2159" stop-color="#7ECBB6"/>
<stop offset="0.9945" stop-color="#008197"/>
</radialGradient>
<radialGradient id="paint11_radial_101_12" cx="0" cy="0" r="1" gradientUnits="userSpaceOnUse" gradientTransform="translate(163.415 162.094) scale(157.212 157.212)">
<stop offset="0.2159" stop-color="#7ECBB6"/>
<stop offset="0.9945" stop-color="#008197"/>
</radialGradient>
</defs>
</svg>
